<svg display="none" xmlns="http://www.w3.org/2000/svg">

  <symbol id="vk" viewBox="0 0 9 16">
    <path d="M89 0H5a5 5 0 0 0-5 5v84a5 5 0 0 0 5 5h84a5 5 0 0 0 5-5V5a5 5 0 0 0-5-5zM74.869 52.943c2.562 2.5 5.271 4.854 7.572 7.617 1.018 1.22 1.978 2.48 2.709 3.899 1.041 2.024.101 4.247-1.713 4.366l-11.256-.003c-2.906.239-5.22-.931-7.172-2.918-1.555-1.585-3.001-3.277-4.5-4.914-.611-.673-1.259-1.306-2.025-1.806-1.534-.996-2.867-.692-3.748.909-.896 1.63-1.103 3.438-1.185 5.255-.125 2.655-.925 3.348-3.588 3.471-5.69.268-11.091-.596-16.108-3.463-4.429-2.53-7.854-6.104-10.838-10.146-5.816-7.883-10.27-16.536-14.27-25.437-.901-2.005-.242-3.078 1.967-3.119 3.676-.073 7.351-.063 11.022-.004 1.496.023 2.485.879 3.058 2.289 1.985 4.885 4.421 9.533 7.471 13.843.813 1.147 1.643 2.292 2.823 3.103 1.304.896 2.298.601 2.913-.854.393-.928.563-1.914.647-2.906.292-3.396.327-6.792-.177-10.175-.315-2.116-1.507-3.483-3.617-3.883-1.074-.204-.917-.602-.395-1.215.906-1.062 1.76-1.718 3.456-1.718l12.721-.002c2.006.392 2.452 1.292 2.725 3.311l.012 14.133c-.021.782.391 3.098 1.795 3.61 1.123.371 1.868-.53 2.54-1.244 3.048-3.235 5.22-7.056 7.167-11.009.857-1.743 1.6-3.549 2.32-5.356.533-1.337 1.367-1.995 2.875-1.971l12.246.013c.36 0 .729.004 1.086.063 2.062.355 2.627 1.243 1.99 3.257-1.004 3.163-2.959 5.799-4.871 8.441-2.043 2.825-4.224 5.557-6.252 8.396-1.858 2.604-1.708 3.912.6 6.167z" />
  </symbol>

  <symbol id="twitter" viewBox="0 0 9 16">
    <path d="m475.074219 0h-438.148438c-20.394531 0-36.925781 16.53125-36.925781 36.925781v438.148438c0 20.394531 16.53125 36.925781 36.925781 36.925781h438.148438c20.394531 0 36.925781-16.53125 36.925781-36.925781v-438.148438c0-20.394531-16.53125-36.925781-36.925781-36.925781zm-102.1875 199.601562c.113281 2.519532.167969 5.050782.167969 7.59375 0 77.644532-59.101563 167.179688-167.183594 167.183594h.003906-.003906c-33.183594 0-64.0625-9.726562-90.066406-26.394531 4.597656.542969 9.277343.8125 14.015624.8125 27.53125 0 52.867188-9.390625 72.980469-25.152344-25.722656-.476562-47.410156-17.464843-54.894531-40.8125 3.582031.6875 7.265625 1.0625 11.042969 1.0625 5.363281 0 10.558593-.722656 15.496093-2.070312-26.886718-5.382813-47.140624-29.144531-47.140624-57.597657 0-.265624 0-.503906.007812-.75 7.917969 4.402344 16.972656 7.050782 26.613281 7.347657-15.777343-10.527344-26.148437-28.523438-26.148437-48.910157 0-10.765624 2.910156-20.851562 7.957031-29.535156 28.976563 35.554688 72.28125 58.9375 121.117187 61.394532-1.007812-4.304688-1.527343-8.789063-1.527343-13.398438 0-32.4375 26.316406-58.753906 58.765625-58.753906 16.902344 0 32.167968 7.144531 42.890625 18.566406 13.386719-2.640625 25.957031-7.53125 37.3125-14.261719-4.394531 13.714844-13.707031 25.222657-25.839844 32.5 11.886719-1.421875 23.214844-4.574219 33.742187-9.253906-7.863281 11.785156-17.835937 22.136719-29.308593 30.429687zm0 0" />

  </symbol>

  <symbol id="facebook" viewBox="0 0 9 16">
    <path d="M2.39687 16V8.84375H0V6H2.39687V3.75938C2.39687 1.325 3.88438 0 6.05625 0C7.09688 0 7.99062 0.078125 8.25 0.1125V2.65625H6.74375C5.5625 2.65625 5.33437 3.21875 5.33437 4.04063V6H8L7.63438 8.84375H5.33437V16" />
  </symbol>

</svg>